General
Complete name :kama sutra-a tale of love.
Format : AVI
Format/Info : Audio Video Interleave
File size : 596 MiB
Duration : 1h 50mn
Overall bit rate : 756 Kbps
Writing library : MPlayer

Video
ID : 0
Format : MPEG-4 Visual
Format profile : Simple@L1
Format settings, BVOP : No
Format settings, QPel : No
Format settings, GMC : No warppoints
Format settings, Matrix : Default (H.263)
Codec ID : DX50
Codec ID/Hint : DivX 5
Duration : 1h 50mn
Bit rate : 632 Kbps
Width : 630 pixels
Height : 302 pixels
Display aspect ratio : 2.086
Frame rate : 23.976 fps
Color space : YUV
Chroma subsampling : 4:2:0
Bit depth : 8 bits
Scan type : Interlaced
Scan order : Top Field First
Bits/(Pixel*Frame) : 0.139
Stream size : 498 MiB (84%)
Writing library : Lavc52.30.1

Audio
ID : 1
Format : MPEG Audio
Format version : Version 1
Format profile : Layer 3
Mode : Joint stereo
Mode extension : MS Stereo
Codec ID : 55
Codec ID/Hint : MP3
Language: english
Duration : 1h 50mn
Bit rate mode : Constant
Bit rate : 112 Kbps
Channel(s) : 2 channels
Sampling rate : 44.1 KHz
Stream size : 88.2 MiB (15%)
Alignment : Aligned on interleaves
Interleave, duration : 26 ms (0.63 video frame)
Interleave, preload duration : 809 ms
Awards:1 win & 1 nomination

plot::Tara and Maya are two inseparable friends in India. Their tastes, habits, and hobbies are the same. Years later, the two have matured, but have maintained their friendship. Tara gets married to the local prince, Raj Singh, who soon succeeds the throne as the sole heir. After the marriage, Raj gets bored of Tara and starts seeking another female to satisfy his sexual needs. He notices Maya and is instantly attracted to her. He has her included as one of his courtesans, and is intimate with her. Watch what happens when Tara finds out and the extent she will go to keep her marriage intact.

screenshots>


